<?xml version="1.0" encoding="UTF-8" standalone="no"?>
<!DOCTYPE svg PUBLIC "-//W3C//DTD SVG 1.1//EN" "http://www.w3.org/Graphics/SVG/1.1/DTD/svg11.dtd">
<!-- Created with Linearity Curve (http://linearity.io/curve) -->
<svg height="100%" stroke-miterlimit="10" style="fill-rule:nonzero;clip-rule:evenodd;stroke-linecap:round;stroke-linejoin:round;" version="1.1" viewBox="169.201 229.93 223.165 239.665" width="100%" xml:space="preserve" xmlns="http://www.w3.org/2000/svg" xmlns:vectornator="http://vectornator.io" xmlns:xlink="http://www.w3.org/1999/xlink">
<defs/>
<g id="Layer">
<g opacity="1">
<path d="M195.283 271.189L223.333 271.189C224.318 271.189 225.261 271.435 226.081 271.927L232.766 275.951C233.545 276.402 234.16 277.059 234.652 277.839L248.718 301.814C249.21 302.635 249.456 303.579 249.456 304.523L249.456 312.57C249.456 313.514 249.21 314.458 248.718 315.279L234.652 339.254C234.201 340.034 233.545 340.691 232.766 341.142L226.081 345.165C225.261 345.658 224.318 345.945 223.333 345.945L195.283 345.945C194.34 345.945 193.356 345.699 192.536 345.165L185.851 341.142C185.072 340.691 184.457 340.034 184.006 339.254L169.94 315.279C169.447 314.458 169.201 313.514 169.201 312.57L169.201 304.523C169.201 303.579 169.447 302.635 169.94 301.814L184.006 277.839C184.457 277.059 185.113 276.402 185.851 275.951L192.536 271.927C193.356 271.435 194.299 271.147 195.283 271.147L195.283 271.189Z" fill="#f6a009" fill-rule="nonzero" opacity="1" stroke="none"/>
<path d="M195.283 353.618L223.333 353.618C224.318 353.618 225.261 353.865 226.081 354.357L232.766 358.38C233.545 358.832 234.16 359.489 234.652 360.269L248.718 384.243C249.21 385.064 249.456 386.009 249.456 386.953L249.456 394.999C249.456 395.943 249.21 396.888 248.718 397.709L234.652 421.683C234.201 422.463 233.545 423.12 232.766 423.572L226.081 427.595C225.261 428.088 224.318 428.375 223.333 428.375L195.283 428.375C194.34 428.375 193.356 428.088 192.536 427.595L185.851 423.572C185.072 423.12 184.457 422.463 184.006 421.683L169.94 397.709C169.447 396.888 169.201 395.943 169.201 394.999L169.201 386.953C169.201 386.009 169.447 385.064 169.94 384.243L184.006 360.269C184.457 359.489 185.113 358.832 185.851 358.38L192.536 354.357C193.356 353.865 194.299 353.577 195.283 353.577L195.283 353.618Z" fill="#a36421" fill-rule="nonzero" opacity="1" stroke="none"/>
<path d="M338.193 271.189L366.244 271.189C367.228 271.189 368.171 271.435 368.991 271.927L375.676 275.951C376.455 276.402 377.07 277.059 377.562 277.839L391.628 301.814C392.12 302.635 392.366 303.579 392.366 304.523L392.366 312.57C392.366 313.514 392.12 314.458 391.628 315.279L377.562 339.254C377.111 340.034 376.455 340.691 375.676 341.142L368.991 345.165C368.171 345.658 367.228 345.945 366.244 345.945L338.193 345.945C337.25 345.945 336.266 345.699 335.446 345.165L328.761 341.142C327.982 340.691 327.367 340.034 326.916 339.254L312.85 315.279C312.358 314.458 312.112 313.514 312.112 312.57L312.112 304.523C312.112 303.579 312.358 302.635 312.85 301.814L326.916 277.839C327.367 277.059 328.023 276.402 328.761 275.951L335.446 271.927C336.266 271.435 337.209 271.147 338.193 271.147L338.193 271.189Z" fill="#f6a009" fill-rule="nonzero" opacity="1" stroke="none"/>
<path d="M338.193 353.618L366.244 353.618C367.228 353.618 368.171 353.865 368.991 354.357L375.676 358.38C376.455 358.832 377.07 359.489 377.562 360.269L391.628 384.243C392.12 385.064 392.366 386.009 392.366 386.953L392.366 394.999C392.366 395.943 392.12 396.888 391.628 397.709L377.562 421.683C377.111 422.463 376.455 423.12 375.676 423.572L368.991 427.595C368.171 428.088 367.228 428.375 366.244 428.375L338.193 428.375C337.25 428.375 336.266 428.088 335.446 427.595L328.761 423.572C327.982 423.12 327.367 422.463 326.916 421.683L312.85 397.709C312.358 396.888 312.112 395.943 312.112 394.999L312.112 386.953C312.112 386.009 312.358 385.064 312.85 384.243L326.916 360.269C327.367 359.489 328.023 358.832 328.761 358.38L335.446 354.357C336.266 353.865 337.209 353.577 338.193 353.577L338.193 353.618Z" fill="#a36421" fill-rule="nonzero" opacity="1" stroke="none"/>
<path d="M266.818 312.403L294.869 312.403C295.853 312.403 296.796 312.65 297.616 313.142L304.301 317.165C305.08 317.617 305.695 318.274 306.187 319.054L320.253 343.029C320.745 343.85 320.991 344.794 320.991 345.738L320.991 353.784C320.991 354.729 320.745 355.673 320.253 356.494L306.187 380.469C305.736 381.249 305.08 381.905 304.301 382.357L297.616 386.38C296.796 386.873 295.853 387.16 294.869 387.16L266.818 387.16C265.875 387.16 264.891 386.914 264.071 386.38L257.386 382.357C256.607 381.905 255.992 381.249 255.541 380.469L241.475 356.494C240.983 355.673 240.737 354.729 240.737 353.784L240.737 345.738C240.737 344.794 240.983 343.85 241.475 343.029L255.541 319.054C255.992 318.274 256.648 317.617 257.386 317.165L264.071 313.142C264.891 312.65 265.834 312.362 266.818 312.362L266.818 312.403Z" fill="#ffd60b" fill-rule="nonzero" opacity="1" stroke="none"/>
<path d="M266.818 394.838L294.869 394.838C295.853 394.838 296.796 395.084 297.616 395.577L304.301 399.6C305.08 400.052 305.695 400.708 306.187 401.488L320.253 425.463C320.745 426.284 320.991 427.228 320.991 428.173L320.991 436.219C320.991 437.163 320.745 438.107 320.253 438.928L306.187 462.903C305.736 463.683 305.08 464.34 304.301 464.791L297.616 468.815C296.796 469.307 295.853 469.595 294.869 469.595L266.818 469.595C265.875 469.595 264.891 469.307 264.071 468.815L257.386 464.791C256.607 464.34 255.992 463.683 255.541 462.903L241.475 438.928C240.983 438.107 240.737 437.163 240.737 436.219L240.737 428.173C240.737 427.228 240.983 426.284 241.475 425.463L255.541 401.488C255.992 400.708 256.648 400.052 257.386 399.6L264.071 395.577C264.891 395.084 265.834 394.797 266.818 394.797L266.818 394.838Z" fill="#a36421" fill-rule="nonzero" opacity="1" stroke="none"/>
<path d="M266.818 229.971L294.869 229.971C295.853 229.971 296.796 230.217 297.616 230.71L304.301 234.733C305.08 235.184 305.695 235.841 306.187 236.621L320.253 260.596C320.745 261.417 320.991 262.361 320.991 263.305L320.991 271.352C320.991 272.296 320.745 273.24 320.253 274.061L306.187 298.036C305.736 298.816 305.08 299.473 304.301 299.924L297.616 303.947C296.796 304.44 295.853 304.727 294.869 304.727L266.818 304.727C265.875 304.727 264.891 304.481 264.071 303.947L257.386 299.924C256.607 299.473 255.992 298.816 255.541 298.036L241.475 274.061C240.983 273.24 240.737 272.296 240.737 271.352L240.737 263.305C240.737 262.361 240.983 261.417 241.475 260.596L255.541 236.621C255.992 235.841 256.648 235.184 257.386 234.733L264.071 230.71C264.891 230.217 265.834 229.93 266.818 229.93L266.818 229.971Z" fill="#f6a009" fill-rule="nonzero" opacity="1" stroke="none"/>
</g>
</g>
</svg>
